<svg width="32" height="32" viewBox="0 0 32 32" fill="none" xmlns="http://www.w3.org/2000/svg">
<path fill-rule="evenodd" clip-rule="evenodd" d="M8.21053 10.56C10.0649 9.0568 12.5211 8 16 8C19.4789 8 21.9342 9.0568 23.7895 10.5592C25.5312 11.9712 26.7256 13.7664 27.7502 15.3072L27.8757 15.4968C27.9539 15.6138 27.9966 15.746 27.9998 15.8811C28.003 16.0163 27.9667 16.1499 27.8942 16.2696C26.8567 17.9784 25.6402 19.9192 23.8144 21.4184C21.9489 22.9488 19.4771 24 16 24C12.5239 24 10.0501 22.9488 8.18561 21.4184C6.35985 19.9192 5.14329 17.9784 4.1058 16.2696C4.0333 16.1499 3.99697 16.0163 4.0002 15.8811C4.00343 15.746 4.04611 15.6138 4.12426 15.4968L4.25072 15.3072C5.27528 13.7664 6.46969 11.9704 8.21053 10.56ZM5.97771 15.9136C6.95428 17.5072 7.99731 19.0608 9.4557 20.256C10.9925 21.5184 13.0158 22.4 16 22.4C18.9842 22.4 21.0075 21.5184 22.5443 20.256C24.0008 19.0608 25.0439 17.5072 26.0223 15.9136C25.018 14.4088 23.9805 12.904 22.5286 11.728C20.9955 10.4856 18.9823 9.6 16 9.6C13.0177 9.6 11.0055 10.4856 9.47139 11.728C8.01946 12.9048 6.98197 14.4096 5.97771 15.9136ZM12.0839 12.6059C13.1225 11.7057 14.5312 11.2 16 11.2C17.4688 11.2 18.8775 11.7057 19.9161 12.6059C20.9547 13.5061 21.5382 14.727 21.5382 16C21.5382 17.273 20.9547 18.4939 19.9161 19.3941C18.8775 20.2943 17.4688 20.8 16 20.8C14.5312 20.8 13.1225 20.2943 12.0839 19.3941C11.0453 18.4939 10.4618 17.273 10.4618 16C10.4618 14.727 11.0453 13.5061 12.0839 12.6059ZM13.3893 13.7373C12.6968 14.3374 12.3079 15.1513 12.3079 16C12.3079 16.8487 12.6968 17.6626 13.3893 18.2627C14.0817 18.8629 15.0208 19.2 16 19.2C16.9792 19.2 17.9183 18.8629 18.6107 18.2627C19.3031 17.6626 19.6921 16.8487 19.6921 16C19.6921 15.1513 19.3031 14.3374 18.6107 13.7373C17.9183 13.1371 16.9792 12.8 16 12.8C15.0208 12.8 14.0817 13.1371 13.3893 13.7373Z" fill="black"/>
</svg>
