<svg width="32" height="32" viewBox="0 0 32 32" fill="none" xmlns="http://www.w3.org/2000/svg">
<path fill-rule="evenodd" clip-rule="evenodd" d="M27.6945 8.33384C27.7939 8.43699 27.8721 8.55871 27.9245 8.69205C27.9768 8.8254 28.0024 8.96775 27.9998 9.11099C27.9972 9.25423 27.9664 9.39555 27.9091 9.52687C27.8519 9.6582 27.7693 9.77697 27.6662 9.87639L12.9389 24.0582C12.7356 24.2542 12.4642 24.3637 12.1818 24.3637C11.8994 24.3637 11.628 24.2542 11.4247 24.0582L4.33384 17.2302C4.23069 17.1308 4.14814 17.012 4.09089 16.8807C4.03364 16.7493 4.00282 16.608 4.00018 16.4648C3.99487 16.1755 4.10468 15.896 4.30547 15.6876C4.50627 15.4793 4.78159 15.3593 5.07087 15.354C5.36015 15.3487 5.6397 15.4585 5.84802 15.6593L12.1818 21.7575L26.152 8.30548C26.2551 8.20606 26.3768 8.12792 26.5102 8.07554C26.6435 8.02316 26.7859 7.99755 26.9291 8.00018C27.0724 8.00282 27.2137 8.03364 27.345 8.09089C27.4763 8.14814 27.5951 8.2307 27.6945 8.33384Z" fill="black"/>
</svg>
