<svg width="32" height="32" viewBox="0 0 32 32" fill="none" xmlns="http://www.w3.org/2000/svg">
<path fill-rule="evenodd" clip-rule="evenodd" d="M12.1216 6C10.1796 6 9.36455 8.189 10.6216 9.402L16.0106 14.61L21.4006 9.402C22.6566 8.19 21.8406 6 19.8996 6H12.1206H12.1216ZM17.4496 16L22.7896 10.84C25.4456 8.274 23.4896 4 19.8996 4H12.1206C8.53055 4 6.57455 8.274 9.23055 10.84L14.5706 16L9.23055 21.16C6.57555 23.726 8.53055 28 12.1206 28H19.8986C23.4886 28 25.4446 23.726 22.7886 21.16L17.4506 16H17.4496ZM16.0106 17.39L10.6206 22.598C9.36455 23.81 10.1806 26 12.1216 26H19.8996C21.8416 26 22.6566 23.811 21.3996 22.598L16.0106 17.39Z" fill="black"/>
</svg>
