<svg width="32" height="32" viewBox="0 0 32 32" fill="none" xmlns="http://www.w3.org/2000/svg">
<path fill-rule="evenodd" clip-rule="evenodd" d="M4 15.712C4 9.08458 9.37257 3.71201 16 3.71201C22.6274 3.71201 28 9.08458 28 15.712C28 22.3394 22.6274 27.712 16 27.712C9.37257 27.712 4 22.3394 4 15.712ZM16 5.42629C10.3197 5.42629 5.71429 10.0317 5.71429 15.712C5.71429 21.3923 10.3197 25.9977 16 25.9977C21.6803 25.9977 26.2857 21.3923 26.2857 15.712C26.2857 10.0317 21.6803 5.42629 16 5.42629ZM15.0909 10.0886C15.332 9.84746 15.659 9.71201 16 9.71201C16.341 9.71201 16.668 9.84746 16.9091 10.0886C17.1503 10.3297 17.2857 10.6567 17.2857 10.9977C17.2857 11.3387 17.1503 11.6657 16.9091 11.9069C16.668 12.148 16.341 12.2834 16 12.2834C15.659 12.2834 15.332 12.148 15.0909 11.9069C14.8497 11.6657 14.7143 11.3387 14.7143 10.9977C14.7143 10.6567 14.8497 10.3297 15.0909 10.0886ZM14.5368 14.2488C14.6975 14.088 14.9155 13.9977 15.1429 13.9977H16C16.2273 13.9977 16.4453 14.088 16.6061 14.2488C16.7668 14.4095 16.8571 14.6275 16.8571 14.8549V19.9977C17.0845 19.9977 17.3025 20.088 17.4632 20.2488C17.624 20.4095 17.7143 20.6275 17.7143 20.8549C17.7143 21.0822 17.624 21.3002 17.4632 21.461C17.3025 21.6217 17.0845 21.712 16.8571 21.712H15.1429C14.9155 21.712 14.6975 21.6217 14.5368 21.461C14.376 21.3002 14.2857 21.0822 14.2857 20.8549C14.2857 20.6275 14.376 20.4095 14.5368 20.2488C14.6975 20.088 14.9155 19.9977 15.1429 19.9977V15.712C14.9155 15.712 14.6975 15.6217 14.5368 15.461C14.376 15.3002 14.2857 15.0822 14.2857 14.8549C14.2857 14.6275 14.376 14.4095 14.5368 14.2488Z" fill="black"/>
</svg>
