<svg width="32" height="32" viewBox="0 0 32 32" fill="none" xmlns="http://www.w3.org/2000/svg">
<path fill-rule="evenodd" clip-rule="evenodd" d="M4 15.8003C3.99987 15.6413 4.03131 15.484 4.09249 15.3373C4.15367 15.1906 4.24338 15.0576 4.3564 14.9459L14.0836 5.34587C14.3102 5.12229 14.6163 4.99789 14.9347 5.00003C15.253 5.00216 15.5574 5.13067 15.781 5.35727C16.0046 5.58387 16.129 5.89001 16.1268 6.20833C16.1247 6.52666 15.9962 6.83109 15.7696 7.05467L8.1244 14.6003L26.8 14.6003C27.1183 14.6003 27.4235 14.7267 27.6485 14.9517C27.8736 15.1768 28 15.482 28 15.8003C28 16.1185 27.8736 16.4238 27.6485 16.6488C27.4235 16.8738 27.1183 17.0003 26.8 17.0003L8.1244 17.0003L15.7696 24.5459C15.8818 24.6566 15.9711 24.7883 16.0324 24.9335C16.0937 25.0787 16.1258 25.2346 16.1268 25.3922C16.1279 25.5498 16.0979 25.7061 16.0386 25.8521C15.9792 25.9982 15.8917 26.1311 15.781 26.2433C15.6703 26.3555 15.5386 26.4448 15.3934 26.5061C15.2481 26.5674 15.0923 26.5995 14.9347 26.6005C14.777 26.6016 14.6208 26.5716 14.4747 26.5122C14.3287 26.4529 14.1958 26.3654 14.0836 26.2547L4.3576 16.6547C4.24436 16.543 4.15443 16.41 4.09304 16.2634C4.03165 16.1167 4.00003 15.9593 4 15.8003Z" fill="#181818"/>
</svg>
