<svg width="32" height="32" viewBox="0 0 32 32" fill="none" xmlns="http://www.w3.org/2000/svg">
<path fill-rule="evenodd" clip-rule="evenodd" d="M15.8003 28C15.6414 28.0001 15.484 27.9687 15.3373 27.9075C15.1906 27.8463 15.0576 27.7566 14.9459 27.6436L5.34587 17.9164C5.12229 17.6898 4.99789 17.3837 5.00003 17.0653C5.00217 16.747 5.13067 16.4426 5.35727 16.219C5.58387 15.9954 5.89001 15.871 6.20833 15.8732C6.52666 15.8753 6.83109 16.0038 7.05467 16.2304L14.6003 23.8756V5.2C14.6003 4.88174 14.7267 4.57652 14.9517 4.35147C15.1768 4.12643 15.482 4 15.8003 4C16.1185 4 16.4238 4.12643 16.6488 4.35147C16.8738 4.57652 17.0003 4.88174 17.0003 5.2V23.8756L24.5459 16.2304C24.6566 16.1182 24.7883 16.0289 24.9335 15.9676C25.0787 15.9063 25.2346 15.8742 25.3922 15.8732C25.5498 15.8721 25.7061 15.9021 25.8521 15.9614C25.9982 16.0208 26.1311 16.1083 26.2433 16.219C26.3555 16.3297 26.4448 16.4614 26.5061 16.6066C26.5674 16.7519 26.5995 16.9077 26.6005 17.0653C26.6016 17.223 26.5716 17.3792 26.5122 17.5253C26.4529 17.6713 26.3654 17.8042 26.2547 17.9164L16.6547 27.6424C16.543 27.7556 16.41 27.8456 16.2634 27.907C16.1167 27.9683 15.9593 28 15.8003 28Z" fill="black"/>
</svg>
