<svg width="32" height="32" viewBox="0 0 32 32" fill="none" xmlns="http://www.w3.org/2000/svg">
<path d="M25.7404 27.593C25.9919 27.8358 26.3287 27.9702 26.6783 27.9672C27.0278 27.9641 27.3623 27.8239 27.6095 27.5767C27.8567 27.3295 27.9969 26.9951 28 26.6455C28.003 26.2959 27.8686 25.9591 27.6257 25.7076L17.9017 15.9836L27.6257 6.25962C27.8686 6.00815 28.003 5.67134 28 5.32175C27.9969 4.97215 27.8567 4.63774 27.6095 4.39052C27.3623 4.14331 27.0278 4.00309 26.6783 4.00005C26.3287 3.99701 25.9919 4.13141 25.7404 4.37428L16.0164 14.0983L6.29238 4.37428C6.04091 4.13141 5.70411 3.99701 5.35452 4.00005C5.00492 4.00309 4.6705 4.14331 4.42329 4.39052C4.17608 4.63774 4.03586 4.97215 4.03282 5.32175C4.02978 5.67134 4.16417 6.00815 4.40705 6.25962L14.1311 15.9836L4.40705 25.7076C4.2797 25.8306 4.17813 25.9777 4.10825 26.1404C4.03837 26.3031 4.00159 26.478 4.00005 26.6551C3.99851 26.8321 4.03225 27.0077 4.09929 27.1716C4.16633 27.3354 4.26533 27.4843 4.39052 27.6095C4.51571 27.7347 4.66458 27.8337 4.82845 27.9007C4.99231 27.9678 5.16788 28.0015 5.34492 28C5.52196 27.9984 5.69692 27.9616 5.85959 27.8918C6.02226 27.8219 6.16939 27.7203 6.29238 27.593L16.0164 17.8689L25.7404 27.593Z" fill="black"/>
</svg>
