<svg width="32" height="32" viewBox="0 0 32 32" fill="none" xmlns="http://www.w3.org/2000/svg">
<path fill-rule="evenodd" clip-rule="evenodd" d="M12.2511 4.25105C12.4118 4.09031 12.6298 4 12.8571 4H19.7143C19.9416 4 20.1596 4.09031 20.3204 4.25105C20.4811 4.4118 20.5714 4.62981 20.5714 4.85714C20.5714 5.08447 20.4811 5.30249 20.3204 5.46323C20.1596 5.62398 19.9416 5.71429 19.7143 5.71429H12.8571C12.6298 5.71429 12.4118 5.62398 12.2511 5.46323C12.0903 5.30249 12 5.08447 12 4.85714C12 4.62981 12.0903 4.4118 12.2511 4.25105ZM21.418 13.4317C21.42 13.6564 21.3336 13.8729 21.1774 14.0346L16.8917 18.3203C16.7301 18.4764 16.5135 18.5628 16.2888 18.5609C16.0641 18.5589 15.8491 18.4688 15.6902 18.3098C15.5312 18.1509 15.4411 17.9359 15.4391 17.7112C15.4372 17.4865 15.5236 17.2699 15.6797 17.1083L19.9654 12.8226C20.1271 12.6664 20.3436 12.58 20.5683 12.582C20.7931 12.5839 21.0081 12.6741 21.167 12.833C21.3259 12.9919 21.4161 13.2069 21.418 13.4317ZM16.2857 7.42857C10.6054 7.42857 6 12.034 6 17.7143C6 23.3946 10.6054 28 16.2857 28C21.966 28 26.5714 23.3946 26.5714 17.7143C26.5714 12.034 21.966 7.42857 16.2857 7.42857ZM7.71429 17.7143C7.71429 12.9803 11.5517 9.14286 16.2857 9.14286C21.0197 9.14286 24.8571 12.9803 24.8571 17.7143C24.8571 22.4483 21.0197 26.2857 16.2857 26.2857C11.5517 26.2857 7.71429 22.4483 7.71429 17.7143Z" fill="black"/>
</svg>
