<svg width="32" height="32" viewBox="0 0 32 32" fill="none" xmlns="http://www.w3.org/2000/svg">
<path fill-rule="evenodd" clip-rule="evenodd" d="M21.0418 18.1815C22.4076 17.1877 23.4237 15.7872 23.9448 14.1805C24.4659 12.5739 24.4651 10.8436 23.9425 9.23739C23.42 7.63122 22.4026 6.23163 21.0359 5.23909C19.6693 4.24656 18.0236 3.71201 16.3346 3.71201C14.6456 3.71201 12.9999 4.24656 11.6332 5.23909C10.2666 6.23163 9.24915 7.63122 8.72662 9.23739C8.2041 10.8436 8.20331 12.5739 8.72437 14.1805C9.24543 15.7872 10.2616 17.1877 11.6273 18.1815C10.0773 18.7393 8.73715 19.7619 7.78981 21.1096C6.84247 22.4573 6.33409 24.0645 6.33405 25.7119V26.712C6.33405 26.9772 6.43941 27.2316 6.62695 27.4191C6.8145 27.6066 7.06887 27.712 7.3341 27.712C7.59933 27.712 7.8537 27.6066 8.04124 27.4191C8.22879 27.2316 8.33415 26.9772 8.33415 26.712V25.7119C8.33415 24.1205 8.96633 22.5943 10.0916 21.469C11.2169 20.3437 12.7431 19.7116 14.3345 19.7116H18.3347C19.9261 19.7116 21.4523 20.3437 22.5776 21.469C23.7028 22.5943 24.335 24.1205 24.335 25.7119V26.712C24.335 26.9772 24.4404 27.2316 24.6279 27.4191C24.8155 27.6066 25.0698 27.712 25.3351 27.712C25.6003 27.712 25.8547 27.6066 26.0422 27.4191C26.2298 27.2316 26.3351 26.9772 26.3351 26.712V25.7119C26.3351 24.0645 25.8267 22.4573 24.8794 21.1096C23.932 19.7619 22.5919 18.7393 21.0418 18.1815ZM10.3343 11.7111C10.3343 10.1198 10.9664 8.59355 12.0917 7.46827C13.217 6.34299 14.7432 5.71082 16.3346 5.71082C17.926 5.71082 19.4522 6.34299 20.5775 7.46827C21.7027 8.59355 22.3349 10.1198 22.3349 11.7111C22.3349 13.3025 21.7027 14.8287 20.5775 15.954C19.4522 17.0793 17.926 17.7115 16.3346 17.7115C14.7432 17.7115 13.217 17.0793 12.0917 15.954C10.9664 14.8287 10.3343 13.3025 10.3343 11.7111Z" fill="black"/>
</svg>
